<?xml version="1.0" encoding="utf-8"?>
<!-- Generator: Adobe Illustrator 16.0.3, SVG Export Plug-In . SVG Version: 6.00 Build 0)  -->
<!DOCTYPE svg PUBLIC "-//W3C//DTD SVG 1.1//EN" "http://www.w3.org/Graphics/SVG/1.1/DTD/svg11.dtd">
<svg version="1.1" id="Ebene_1" xmlns="http://www.w3.org/2000/svg" xmlns:xlink="http://www.w3.org/1999/xlink" x="0px" y="0px"
	 width="64.4px" height="74.9px" viewBox="0 0 64.4 74.9" enable-background="new 0 0 64.4 74.9" xml:space="preserve">
<path fill-rule="evenodd" clip-rule="evenodd" fill="#1D4C7A" d="M43.4,0c6.8,0,6.8,0,7.3,6.8c9.8-3.1,13.8,0,13.6,10
	c0,1.6-0.3,3.3-0.6,4.9c-2.2,10.6-8,19.3-15.5,26.9c-3.4,3.4-7.1,6.5-12,7.7c-3,0.7-3.7,1.1-1.5,2.5c1.2,0.8,0.9,4-0.5,5.4
	c-0.7,0.8,0.8,1.7,2.3,3.4c1.5,1.6,3.1,3.1,4.5,4.6c1.6,1.7,1,2.8-1.1,2.8H24.3c-2.1,0-2.7-1.2-1.1-2.8c1.5-1.6,3.1-3.1,4.5-4.6
	c1.6-1.7,3.1-2.6,2.3-3.4c-1.4-1.4-1.6-4.6-0.5-5.4c2.1-1.4,1.4-1.8-1.5-2.5c-4.9-1.1-8.6-4.2-12-7.7C8.6,40.9,2.9,32.3,0.6,21.7
	C0.3,20.1,0,18.4,0,16.7c-0.2-10,3.8-13,13.6-10C14.1,0,14.1,0,20.9,0H43.4z M13.9,15.4c-0.2-3.9-4.1-5.5-6.3-5.8
	c-3-0.3-3.2,3.5-3,6.2c0.1,1.8,0.6,3.6,1.1,5.3c2.3,8.1,6.5,15,12.1,21.2C15.7,33.5,14.3,24.5,13.9,15.4z M46.5,42.4
	c5.6-6.2,9.9-13.2,12.1-21.2c0.5-1.7,1-3.5,1.1-5.3c0.2-2.7-0.1-6.5-3-6.2c-2.2,0.2-6.2,1.8-6.3,5.8C50.1,24.5,48.7,33.5,46.5,42.4z
	"/>
</svg>
