<svg xmlns="http://www.w3.org/2000/svg" width="12" height="12" viewBox="0 0 12 12">
  <metadata><?xpacket begin="﻿" id="W5M0MpCehiHzreSzNTczkc9d"?>
<x:xmpmeta xmlns:x="adobe:ns:meta/" x:xmptk="Adobe XMP Core 5.6-c138 79.159824, 2016/09/14-01:09:01        ">
   <rdf:RDF xmlns:rdf="http://www.w3.org/1999/02/22-rdf-syntax-ns#">
      <rdf:Description rdf:about=""/>
   </rdf:RDF>
</x:xmpmeta>
                                                                                                    
                                                                                                    
                                                                                                    
                                                                                                    
                                                                                                    
                                                                                                    
                                                                                                    
                                                                                                    
                                                                                                    
                                                                                                    
                                                                                                    
                                                                                                    
                                                                                                    
                                                                                                    
                                                                                                    
                                                                                                    
                                                                                                    
                                                                                                    
                                                                                                    
                                                                                                    
                           
<?xpacket end="w"?></metadata>
<defs>
    <style>
      .cls-1 {
        fill: #a6a6a6;
        fill-rule: evenodd;
      }
    </style>
  </defs>
  <path id="Icon" class="cls-1" d="M502,5862a1.018,1.018,0,0,1-.736-0.32l-0.725-.79c-2.629-2.58-4.539-4.46-4.539-6.92a6.3,6.3,0,0,1,12,0c0,2.46-1.917,4.34-4.569,6.94l-0.692.76a0.993,0.993,0,0,1-.737.33h0Zm-2.25-10a1.853,1.853,0,0,0-1.75,1.97c0,1.62,1.573,3.17,3.955,5.51l0.041,0.04c2.429-2.38,4-3.93,4-5.55a1.853,1.853,0,0,0-1.75-1.97,1.9,1.9,0,0,0-1.464.75,1.038,1.038,0,0,1-1.572,0A1.9,1.9,0,0,0,499.75,5852Z" transform="translate(-496 -5850)"/>
</svg>
