<svg xmlns="http://www.w3.org/2000/svg" viewBox="0 0 40 39.582"><title>icon-date</title><path d="M35.25,2.582H31.215V1a1,1,0,0,0-2,0V2.582H10.652V1a1,1,0,0,0-2,0V2.582H4.75A4.755,4.755,0,0,0,0,7.332v27.5a4.755,4.755,0,0,0,4.75,4.75h30.5A4.755,4.755,0,0,0,40,34.832V7.332A4.755,4.755,0,0,0,35.25,2.582Zm-30.5,2h3.9V7.05a1,1,0,1,0,2,0V4.582H29.215V7.05a1,1,0,0,0,2,0V4.582H35.25A2.753,2.753,0,0,1,38,7.332v2.75H2V7.332A2.753,2.753,0,0,1,4.75,4.582Zm30.5,33H4.75A2.753,2.753,0,0,1,2,34.832V12.082H38v22.75A2.753,2.753,0,0,1,35.25,37.582Z"/><path d="M30.84,15.128a1,1,0,0,0-1.406.158L17.324,30.448l-6.078-5.318a1,1,0,0,0-1.317,1.505l6.865,6.007a1,1,0,0,0,.659.248c.029,0,.059,0,.089,0a1,1,0,0,0,.692-.372L31,16.534A1,1,0,0,0,30.84,15.128Z"/></svg>