<?xml version="1.0" encoding="utf-8"?>
<!-- Generator: Adobe Illustrator 21.0.0, SVG Export Plug-In . SVG Version: 6.00 Build 0)  -->
<svg version="1.1" id="Слой_1" xmlns="http://www.w3.org/2000/svg" xmlns:xlink="http://www.w3.org/1999/xlink" x="0px" y="0px"
	 viewBox="0 0 76 84.5" style="enable-background:new 0 0 76 84.5;" xml:space="preserve">
<style type="text/css">
	.st0{fill:#FFFFFF;}
</style>
<title>icon-organizer</title>
<path class="st0" d="M39,37.8H37c-5,0-9-5.9-10.8-11.7c-0.8-0.5-1.3-1.4-1.5-2.3v0c-0.4-0.6-0.7-1.3-0.8-1.9
	c-0.4-1.5-0.2-3.2,0.7-4.5L24,14.5C24,5.4,29.3,0,38,0s14,5.4,14,14.5l0,0.4l-0.5,2.5c0.9,1.3,1.1,3,0.7,4.5c-0.2,0.7-0.4,1.4-0.8,2
	v0c-0.2,0.9-0.7,1.7-1.5,2.3C48,31.9,43.9,37.8,39,37.8z M29.3,24.3c1.5,5.5,5,10,7.7,10H39c2.7,0,6.2-4.5,7.7-10l0.4-1.4l0.4,0
	c0.2,0,0.4-0.1,0.5-0.2l0-0.3l0.3-0.4c0.2-0.3,0.4-0.6,0.4-1c0.2-0.5,0.1-1.1-0.1-1.6l-1.2-0.6l0.3-1.2l0.7-3.3
	C48.4,10.2,47,3.5,38,3.5s-10.4,6.7-10.5,10.9l1,4.6l-1.2,0.6c-0.2,0.5-0.2,1,0,1.5c0.1,0.4,0.2,0.7,0.4,1l0.3,0.4c0,0,0,0.1,0,0.3
	s0.2,0.2,0.5,0.2l0.5,0L29.3,24.3z"/>
<path class="st0" d="M10.5,77.6L10.5,77.6c-1,0-1.8-0.8-1.8-1.8c0,0,0,0,0,0l0.7-23.1c0.2-2.5,1.5-4.7,3.6-6L27,38.5
	c0.7-0.4,1.6-0.5,2.3-0.1c0.7,0.4,1.1,1.2,1.1,2c0,1-0.7,1.8-1.7,1.8c0,0,0,0,0,0c-0.3,0-0.6,0-0.8-0.2l-13.1,7.8
	c-1,0.7-1.7,1.8-1.9,3l-0.7,23.1C12.2,76.9,11.4,77.6,10.5,77.6z"/>
<path class="st0" d="M42.8,77.3c-0.8,0-1.4-0.6-1.5-1.3l-3.4-25.7L34.4,76c-0.1,0.8-0.9,1.4-1.7,1.3c-0.8-0.1-1.4-0.9-1.3-1.7
	l3.8-28.3l-1.1-1.9c-0.7-1.2-0.8-2.7-0.1-3.9l0.3-0.5c0.6-0.8,1.5-1.2,2.5-1.2c0.4,0,0.8,0,0.8,0h0.6c0,0,0.4,0,0.8,0
	c1,0,1.9,0.4,2.4,1.2l0.3,0.5c0.7,1.2,0.6,2.7-0.1,3.9l-1.1,1.9l3.8,28.3c0.1,0.8-0.5,1.6-1.3,1.7c0,0,0,0,0,0
	C42.9,77.3,42.8,77.3,42.8,77.3z M36.7,43l-0.2,0.3c0,0.3,0,0.5,0.2,0.7l1.2,2l1.2-2c0.1-0.2,0.2-0.5,0.1-0.8L39,43
	c-0.4,0-0.8,0-0.8,0h-0.7C37.5,43,37.1,43,36.7,43z"/>
<path class="st0" d="M65.5,77.6c-0.9,0-1.7-0.8-1.7-1.7l-0.7-23.1c-0.1-1.2-0.8-2.3-1.8-3L48.1,42c-0.9,0.4-1.9,0-2.3-0.8
	c-0.1-0.2-0.2-0.5-0.2-0.8c0-1.2,1-2.2,2.2-2.2c0.4,0,0.8,0.1,1.2,0.3l14,8.3c2.1,1.3,3.4,3.5,3.6,5.9l0.7,23.1
	C67.3,76.8,66.6,77.6,65.5,77.6L65.5,77.6z"/>
<path class="st0" d="M74,84.5H2c-1.1,0-2-0.9-2-2s0.9-2,2-2h72c1.1,0,2,0.9,2,2S75.1,84.5,74,84.5z"/>
</svg>
