<svg xmlns="http://www.w3.org/2000/svg" width="16.03" height="16" viewBox="0 0 16.03 16">
  <metadata><?xpacket begin="﻿" id="W5M0MpCehiHzreSzNTczkc9d"?>
<x:xmpmeta xmlns:x="adobe:ns:meta/" x:xmptk="Adobe XMP Core 5.6-c138 79.159824, 2016/09/14-01:09:01        ">
   <rdf:RDF xmlns:rdf="http://www.w3.org/1999/02/22-rdf-syntax-ns#">
      <rdf:Description rdf:about=""/>
   </rdf:RDF>
</x:xmpmeta>
                                                                                                    
                                                                                                    
                                                                                                    
                                                                                                    
                                                                                                    
                                                                                                    
                                                                                                    
                                                                                                    
                                                                                                    
                                                                                                    
                                                                                                    
                                                                                                    
                                                                                                    
                                                                                                    
                                                                                                    
                                                                                                    
                                                                                                    
                                                                                                    
                                                                                                    
                                                                                                    
                           
<?xpacket end="w"?></metadata>
<defs>
    <style>
      .cls-1 {
        fill: #e22713;
        fill-rule: evenodd;
      }
    </style>
  </defs>
  <path id="_3" data-name="3" class="cls-1" d="M1223.42,5738.91a0.891,0.891,0,0,0-.75-0.58l-4.52-.53-1.85-4.26a0.885,0.885,0,0,0-.82-0.54h0a0.888,0.888,0,0,0-.81.53l-1.86,4.27-4.52.53a0.9,0.9,0,0,0-.56,1.51l3.48,3.29-1.05,4.82a0.9,0.9,0,0,0,.36.89,0.991,0.991,0,0,0,.52.16,0.883,0.883,0,0,0,.44-0.12l4-2.55,4,2.55a0.892,0.892,0,0,0,.45.12,0.985,0.985,0,0,0,.51-0.16,0.9,0.9,0,0,0,.36-0.89l-1.05-4.82,3.48-3.29A0.888,0.888,0,0,0,1223.42,5738.91Z" transform="translate(-1207.47 -5733)"/>
</svg>
