<?xml version="1.0" encoding="utf-8"?>
<!-- Generator: Adobe Illustrator 21.0.0, SVG Export Plug-In . SVG Version: 6.00 Build 0)  -->
<svg version="1.1" id="Слой_1" xmlns="http://www.w3.org/2000/svg" xmlns:xlink="http://www.w3.org/1999/xlink" x="0px" y="0px"
	 viewBox="0 0 65 65" style="enable-background:new 0 0 65 65;" xml:space="preserve">
<style type="text/css">
	.st0{fill:#FFFFFF;}
</style>
<title>icon-target-group</title>
<path class="st0" d="M52.1,42.7c-0.2-2.5-0.4-4.6-0.6-6.4v-0.1c-0.1-1-0.4-1.9-0.9-2.7l-0.1-0.1c-0.5-0.8-1.2-1.5-2-2
	c-0.3-0.2-0.6-0.3-0.9-0.4L43,29.3l-1.7,3.2L37.2,31l-4,7.5h-1.3l-4-7.5l-4.1,1.5L22,29.3l-4.6,1.6c-0.3,0.1-0.6,0.2-0.9,0.4
	c-0.8,0.5-1.5,1.2-2,2l-0.1,0.1c-0.5,0.8-0.8,1.7-0.9,2.7v0.1c-0.3,2.1-0.5,4.3-0.6,6.4v0.8h5.9v1.7h27.6v-0.8c0-0.3,0-0.6-0.1-0.9
	h5.9L52.1,42.7z M14.5,42c0.1-2.1,0.3-3.9,0.5-5.5v-0.2c0.1-0.8,0.4-1.5,0.8-2.2c0.3-0.6,0.8-1.1,1.4-1.4c0.2-0.1,0.5-0.2,0.7-0.3
	l3.3-1.2l1,1.9c-0.8,0.5-1.5,1.2-2,2c-0.6,1-0.9,2.1-0.9,3.2c-0.2,1.2-0.4,2.5-0.5,3.7H14.5z M20.3,43.7c0.1-1.7,0.3-3.5,0.6-5.2
	v-0.2c0.1-0.9,0.3-1.7,0.7-2.5c0.5-0.8,1.2-1.4,2.1-1.8l3.3-1.2l4,7.2h3l3.9-7.2l3.3,1.2c0.2,0.1,0.5,0.2,0.7,0.3
	c0.6,0.3,1.1,0.8,1.4,1.4v0.1c0.4,0.6,0.6,1.4,0.7,2.1v0.2c0.2,1.6,0.4,3.4,0.5,5.5H20.3V43.7z M46.1,42c-0.1-1.5-0.3-2.8-0.4-4
	v-0.1c-0.1-1-0.4-1.9-0.9-2.7v-0.1c-0.5-0.8-1.2-1.5-2-1.9l1-1.9l3.3,1.2c0.2,0.1,0.5,0.2,0.7,0.3c0.6,0.3,1.1,0.8,1.4,1.4v0.1
	c0.4,0.6,0.6,1.4,0.7,2.1v0.2c0.2,1.6,0.4,3.4,0.5,5.5L46.1,42L46.1,42z"/>
<path class="st0" d="M26.7,16.6c-3.5,0-6.4,2.9-6.4,6.4s2.9,6.4,6.4,6.4c0.4,0,0.9-0.1,1.3-0.1c1.2,1.2,2.8,1.9,4.5,1.9
	c1.7,0,3.3-0.7,4.5-1.9c0.4,0.1,0.9,0.1,1.3,0.1c3.5,0,6.4-2.8,6.5-6.3c0-3.5-2.8-6.4-6.3-6.5c-1.7,0-3.4,0.7-4.6,1.9
	c-0.4-0.1-0.9-0.1-1.3-0.1c-0.4,0-0.9,0-1.3,0.1C30,17.3,28.4,16.6,26.7,16.6z M38.3,18.1c2.7,0,4.9,2.2,4.9,4.9s-2.2,4.9-4.9,4.9
	h-0.2c0.6-1,0.9-2.1,0.9-3.2c0-2.4-1.4-4.6-3.5-5.7C36.3,18.4,37.3,18.1,38.3,18.1z M37.4,24.7c0,2.7-2.2,4.9-4.9,4.9
	c-2.7,0-4.9-2.2-4.9-4.9c0-2.7,2.2-4.9,4.9-4.9C35.2,19.8,37.4,22,37.4,24.7z M26.1,24.7c0,1.1,0.3,2.2,0.9,3.2h-0.2
	c-2.7,0-4.9-2.2-4.9-4.9c0-2.7,2.2-4.9,4.9-4.9c1,0,2,0.3,2.9,0.9C27.5,20,26.1,22.3,26.1,24.7z"/>
<rect x="55.7" y="31.7" class="st0" width="9.3" height="1.5"/>
<rect y="31.7" class="st0" width="9.3" height="1.5"/>
<rect x="31.7" class="st0" width="1.5" height="9.3"/>
<rect x="31.7" y="55.7" class="st0" width="1.5" height="9.3"/>
<path class="st0" d="M59.1,28.9l1.5-0.2C58.9,16,48.9,6,36.2,4.4L36,5.9C48,7.4,57.5,16.9,59.1,28.9z"/>
<path class="st0" d="M29,5.9l-0.2-1.5C16.1,6,6.1,16,4.4,28.7l1.5,0.2C7.5,16.9,17,7.4,29,5.9z"/>
<path class="st0" d="M36,59.1l0.2,1.5C49,59,59,48.9,60.6,36.1L59.1,36C57.5,48.1,48.1,57.5,36,59.1z"/>
<path class="st0" d="M5.9,36l-1.5,0.2C6,49,16,59,28.8,60.6l0.2-1.5C16.9,57.5,7.5,48.1,5.9,36z"/>
</svg>
