<?xml version="1.0" encoding="utf-8"?>
<!-- Generator: Adobe Illustrator 21.0.0, SVG Export Plug-In . SVG Version: 6.00 Build 0)  -->
<svg version="1.1" id="Слой_1" xmlns="http://www.w3.org/2000/svg" xmlns:xlink="http://www.w3.org/1999/xlink" x="0px" y="0px"
	 viewBox="0 0 40 39.6" style="enable-background:new 0 0 40 39.6;" xml:space="preserve">
<style type="text/css">
	.st0{fill:#FFFFFF;}
</style>
<title>icon-date</title>
<path class="st0" d="M35.3,2.6h-4V1c0-0.6-0.4-1-1-1s-1,0.4-1,1v1.6H10.7V1c0-0.6-0.4-1-1-1s-1,0.4-1,1v1.6H4.8C2.1,2.6,0,4.7,0,7.3
	v27.5c0,2.6,2.1,4.7,4.8,4.8h30.5c2.6,0,4.7-2.1,4.8-4.8V7.3C40,4.7,37.9,2.6,35.3,2.6z M4.8,4.6h3.9v2.5c0,0.6,0.4,1,1,1s1-0.4,1-1
	V4.6h18.6v2.5c0,0.6,0.4,1,1,1s1-0.4,1-1V4.6h4c1.5,0,2.7,1.2,2.8,2.8v2.8H2V7.3C2,5.8,3.2,4.6,4.8,4.6z M35.3,37.6H4.8
	c-1.5,0-2.7-1.2-2.8-2.8V12.1h36v22.8C38,36.4,36.8,37.6,35.3,37.6z"/>
<path class="st0" d="M30.8,15.1c-0.4-0.3-1.1-0.3-1.4,0.2c0,0,0,0,0,0L17.3,30.4l-6.1-5.3c-0.4-0.4-1.1-0.3-1.4,0.1
	c-0.4,0.4-0.3,1,0.1,1.4l6.9,6c0.2,0.2,0.4,0.2,0.7,0.2c0,0,0.1,0,0.1,0c0.3,0,0.5-0.2,0.7-0.4l12.8-16
	C31.3,16.1,31.3,15.5,30.8,15.1C30.8,15.1,30.8,15.1,30.8,15.1z"/>
</svg>
