<svg xmlns="http://www.w3.org/2000/svg" width="21.938" height="15.56" viewBox="0 0 21.938 15.56">
  <metadata><?xpacket begin="﻿" id="W5M0MpCehiHzreSzNTczkc9d"?>
<x:xmpmeta xmlns:x="adobe:ns:meta/" x:xmptk="Adobe XMP Core 5.6-c138 79.159824, 2016/09/14-01:09:01        ">
   <rdf:RDF xmlns:rdf="http://www.w3.org/1999/02/22-rdf-syntax-ns#">
      <rdf:Description rdf:about=""/>
   </rdf:RDF>
</x:xmpmeta>
                                                                                                    
                                                                                                    
                                                                                                    
                                                                                                    
                                                                                                    
                                                                                                    
                                                                                                    
                                                                                                    
                                                                                                    
                                                                                                    
                                                                                                    
                                                                                                    
                                                                                                    
                                                                                                    
                                                                                                    
                                                                                                    
                                                                                                    
                                                                                                    
                                                                                                    
                                                                                                    
                           
<?xpacket end="w"?></metadata>
<defs>
    <style>
      .cls-1 {
        fill: #fff;
        fill-rule: evenodd;
      }
    </style>
  </defs>
  <path id="Icon" class="cls-1" d="M338.934,8730.72H321.523a2.239,2.239,0,0,0-2.264,2.21v11.13a2.248,2.248,0,0,0,2.264,2.22h17.411a2.247,2.247,0,0,0,2.264-2.22v-11.13A2.239,2.239,0,0,0,338.934,8730.72Zm-0.746,1.63-7.441,5.78a0.866,0.866,0,0,1-1.037,0l-7.44-5.78h15.918Zm1.342,11.71a0.588,0.588,0,0,1-.6.58H321.523a0.588,0.588,0,0,1-.6-0.58v-10.67l7.746,6.01a2.546,2.546,0,0,0,3.11,0l7.746-6.01v10.67Z" transform="translate(-319.25 -8730.72)"/>
</svg>
