<?xml version="1.0" encoding="UTF-8" standalone="no"?>
<svg
   xmlns:dc="http://purl.org/dc/elements/1.1/"
   xmlns:cc="http://creativecommons.org/ns#"
   xmlns:rdf="http://www.w3.org/1999/02/22-rdf-syntax-ns#"
   xmlns:svg="http://www.w3.org/2000/svg"
   xmlns="http://www.w3.org/2000/svg"
   viewBox="0 0 293.75 59.400002"
   height="59.400002"
   width="293.75"
   xml:space="preserve"
   version="1.1"
   id="svg2"><metadata
     id="metadata8"><rdf:RDF><cc:Work
         rdf:about=""><dc:format>image/svg+xml</dc:format><dc:type
           rdf:resource="http://purl.org/dc/dcmitype/StillImage" /></cc:Work></rdf:RDF></metadata><defs
     id="defs6" /><g
     transform="matrix(1.25,0,0,-1.25,0,59.4)"
     id="g10"><g
       transform="scale(0.1,0.1)"
       id="g12"><path
         id="path14"
         style="fill:#ffffff;fill-opacity:1;fill-rule:nonzero;stroke:none"
         d="m 0,412.824 60.9023,0 45.4607,-104.91 45.461,104.91 60.906,0 -71.398,-148.621 -69.9336,0 L 0,412.824" /><path
         id="path16"
         style="fill:#ffffff;fill-opacity:1;fill-rule:nonzero;stroke:none"
         d="m 367.172,359.199 c 0,17.785 -8.156,20.981 -40.793,20.981 -36.434,0 -40.797,-3.196 -40.797,-20.981 l 81.59,0 z M 229.629,346.676 c 0,56.238 27.973,68.48 68.769,68.48 l 39.051,0 c 59.446,0 83.922,-12.535 83.922,-64.109 l 0,-25.067 -135.789,0 0,-9.031 c 0,-15.738 11.074,-20.109 34.383,-20.109 l 17.191,0 c 30.305,0 31.766,8.16 31.766,16.906 l 52.449,0 0,-6.41 c 0,-37.305 -33.219,-45.465 -73.726,-45.465 l -41.961,0 c -37.008,0 -76.055,6.996 -76.055,70.524 l 0,14.281" /><path
         id="path18"
         style="fill:#ffffff;fill-opacity:1;fill-rule:nonzero;stroke:none"
         d="m 455.758,412.824 52.457,0 0,-28.261 0.578,0 c 6.41,23.601 29.141,30.593 54.5,30.593 40.793,0 56.82,-17.484 56.82,-58.578 0,-3.789 -0.293,-7.867 -0.586,-13.109 l -48.371,0 c 0,18.945 -4.375,27.976 -26.808,27.976 -19.235,0 -32.637,-7.289 -32.637,-25.062 l 0,-82.18 -55.953,0 0,148.621" /><path
         id="path20"
         style="fill:#ffffff;fill-opacity:1;fill-rule:nonzero;stroke:none"
         d="m 650.121,475.188 55.953,0 0,-111.321 10.489,0 49.253,48.957 73.43,0 -74.598,-69.648 83.633,-78.973 -71.394,0 -59.739,59.445 -11.074,0 0,-59.445 -55.953,0 0,210.985" /><path
         id="path22"
         style="fill:#ffffff;fill-opacity:1;fill-rule:nonzero;stroke:none"
         d="m 997.777,359.199 c 0,17.785 -8.164,20.981 -40.8,20.981 -36.426,0 -40.793,-3.196 -40.793,-20.981 l 81.593,0 z M 860.234,346.676 c 0,56.238 27.973,68.48 68.77,68.48 l 39.047,0 c 59.449,0 83.929,-12.535 83.929,-64.109 l 0,-25.067 -135.796,0 0,-9.031 c 0,-15.738 11.074,-20.109 34.382,-20.109 l 17.192,0 c 30.308,0 31.769,8.16 31.769,16.906 l 52.453,0 0,-6.41 c 0,-37.305 -33.22,-45.465 -73.726,-45.465 l -41.965,0 c -37.008,0 -76.055,6.996 -76.055,70.524 l 0,14.281" /><path
         id="path24"
         style="fill:#ffffff;fill-opacity:1;fill-rule:nonzero;stroke:none"
         d="m 1095.1,475.188 55.95,0 0,-86.262 0.59,0 c 9.9,20.695 29.43,26.23 59.44,26.23 34.68,0 83.06,-1.461 83.06,-65.57 l 0,-85.383 -55.95,0 0,85.383 c 0,14.57 -11.67,21.859 -36.14,21.859 l -12.82,0 c -23.9,0 -38.18,-11.078 -38.18,-32.347 l 0,-74.895 -55.95,0 0,210.985" /><path
         id="path26"
         style="fill:#ffffff;fill-opacity:1;fill-rule:nonzero;stroke:none"
         d="m 1332.59,412.824 52.45,0 0,-28.261 0.59,0 c 6.42,23.601 29.14,30.593 54.5,30.593 40.79,0 56.82,-17.484 56.82,-58.578 0,-3.789 -0.29,-7.867 -0.58,-13.109 l -48.38,0 c 0,18.945 -4.37,27.976 -26.81,27.976 -19.23,0 -32.64,-7.289 -32.64,-25.062 l 0,-82.18 -55.95,0 0,148.621" /><path
         id="path28"
         style="fill:#ffffff;fill-opacity:1;fill-rule:nonzero;stroke:none"
         d="m 1582.04,310.539 c 0,-8.16 2.91,-13.699 34.68,-13.699 l 19.81,0 c 26.52,0 33.22,2.039 33.22,11.074 0,8.746 -4.36,12.242 -24.19,12.242 l -52.45,0 c -52.16,0.293 -67.6,11.653 -67.6,52.446 0,37.019 29.72,42.554 68.19,42.554 l 39.04,0 c 73.15,0 85.98,-10.203 86.55,-45.176 l -55.95,0 c -2.91,8.747 -8.15,10.2 -41.67,10.2 -32.34,0 -38.47,-0.867 -38.47,-11.067 0,-6.414 4.38,-8.746 33.52,-8.746 l 38.75,0 c 67.03,0 71.98,-22.437 71.98,-48.957 0,-39.34 -15.74,-49.539 -79.55,-49.539 l -53.04,0 c -51.57,0 -70.52,11.949 -70.52,48.668 l 57.7,0" /><path
         id="path30"
         style="fill:#ffffff;fill-opacity:1;fill-rule:nonzero;stroke:none"
         d="m 70.375,91.3086 89.129,0 c 14.566,0 19.91,5.8242 19.91,18.4534 l 0,5.836 c 0,15.535 -7.773,18.449 -24.769,18.449 l -84.27,0 0,-42.7384 z m -53.9102,86.4454 162.7072,0 c 41.527,0 52.699,-20.633 52.699,-52.207 l 0,-11.168 c 0,-23.5548 -5.348,-37.3946 -30.117,-43.2306 l 0,-0.4843 C 217.781,67.75 231.137,60.707 231.137,31.8086 l 0,-29.86329 -53.91,0 0,21.12499 c 0,18.4531 -5.34,24.5274 -22.098,24.5274 l -84.754,0 0,-45.65239 -53.9102,0 0,175.80869" /><path
         id="path32"
         style="fill:#ffffff;fill-opacity:1;fill-rule:nonzero;stroke:none"
         d="m 270.719,177.754 53.91,0 0,-101.5001 c 0,-22.3437 8.012,-31.0859 30.113,-31.0859 l 53.422,0 c 22.102,0 30.113,8.7422 30.113,31.0859 l 0,101.5001 53.911,0 0,-113.1602 C 492.188,20.8789 469.605,0 420.063,0 l -77.219,0 c -49.543,0 -72.125,20.8789 -72.125,64.5938 l 0,113.1602" /><path
         id="path34"
         style="fill:#ffffff;fill-opacity:1;fill-rule:nonzero;stroke:none"
         d="m 531.039,177.754 83.539,0 101.266,-127.7306 0.484,0 0,127.7306 53.91,0 0,-175.80869 -83.535,0 -101.269,127.73469 -0.485,0 0,-127.73469 -53.91,0 0,175.80869" /><path
         id="path36"
         style="fill:#ffffff;fill-opacity:1;fill-rule:nonzero;stroke:none"
         d="m 864.703,47.1055 95.684,0 c 23.066,0 32.054,6.5625 32.054,31.5781 l 0,23.7964 c 0,25.016 -8.988,31.567 -32.054,31.567 l -95.684,0 0,-86.9415 z m -53.91,130.6485 162.703,0 c 53.914,0 72.854,-17.723 72.854,-61.191 l 0,-53.4224 c 0,-43.4726 -18.94,-61.19529 -72.854,-61.19529 l -162.703,0 0,175.80869" /><path
         id="path38"
         style="fill:#ffffff;fill-opacity:1;fill-rule:nonzero;stroke:none"
         d="m 1082.77,59.4922 53.91,0 c 0.25,-18.6953 7.77,-20.1524 23.32,-20.1524 l 66.05,0 c 11.41,0 23.08,1.211 23.08,14.8125 0,15.2969 -6.32,16.2696 -75.78,16.2696 -81.1,0 -90.34,9.7148 -90.34,52.9371 0,31.817 2.92,56.348 70.92,56.348 l 75.28,0 c 62.16,0 67.99,-21.133 67.99,-51.973 l 0,-5.586 -53.91,0 c 0,12.872 -1.45,18.219 -26.22,18.219 l -59.75,0 c -12.13,0 -20.39,-4.137 -20.39,-13.597 0,-15.309 6.56,-15.793 64.35,-15.555 83.78,0.246 103.21,-4.852 103.21,-56.0939 C 1304.49,7.76953 1288.46,0 1216.82,0 l -65.32,0 c -49.06,0 -68.73,9.23047 -68.73,47.3477 l 0,12.1445" /><path
         id="path40"
         style="fill:#ffffff;fill-opacity:1;fill-rule:nonzero;stroke:none"
         d="m 1341.15,116.078 c 0,51.485 28.9,63.629 77.47,63.629 l 63.38,0 c 76.74,0 86.7,-16.519 86.21,-66.297 l -53.91,0 0,4.852 c 0,12.633 -9.23,16.269 -25.26,16.269 l -58.77,0 c -28.41,0 -33.75,-13.355 -33.75,-35.2146 l 0,-18.9336 c 0,-25.5 5.34,-35.2148 30.84,-35.2148 l 57.55,0 c 24.28,0 31.57,2.4297 31.57,24.2812 l 53.92,0 0,-16.5078 C 1570.4,23.3164 1559.71,0 1505.56,0 l -86.94,0 c -48.57,0 -77.47,12.1445 -77.47,63.6211 l 0,52.4569" /><path
         id="path42"
         style="fill:#ffffff;fill-opacity:1;fill-rule:nonzero;stroke:none"
         d="m 1605.37,177.754 53.91,0 0,-62.645 113.64,0 0,62.645 53.91,0 0,-175.80869 -53.91,0 0,66.53519 -113.64,0 0,-66.53519 -53.91,0 0,175.80869" /><path
         id="path44"
         style="fill:#ffffff;fill-opacity:1;fill-rule:nonzero;stroke:none"
         d="m 1944.37,70.9102 68.97,0 -34.97,66.0468 -34,-66.0468 z m -0.97,106.8438 70.18,0 96.65,-175.80869 -59.98,0 -16.76,31.07809 -109.28,0 -15.78,-31.07809 -60.23,0 95.2,175.80869" /><path
         id="path46"
         style="fill:#ffffff;fill-opacity:1;fill-rule:nonzero;stroke:none"
         d="m 2124.79,177.754 53.92,0 0,-101.5001 c 0,-22.3437 8.01,-31.0859 30.11,-31.0859 l 53.43,0 c 22.1,0 30.11,8.7422 30.11,31.0859 l 0,101.5001 53.91,0 0,-113.1602 C 2346.27,20.8789 2323.69,0 2274.15,0 l -77.23,0 c -49.54,0 -72.13,20.8789 -72.13,64.5938 l 0,113.1602" /><path
         id="path48"
         style="fill:#ea2922;fill-opacity:1;fill-rule:evenodd;stroke:none"
         d="m 1852.51,264.328 64.3398,0 0,148.371 -64.3398,0 0,-148.371 z" /><path
         id="path50"
         style="fill:#ea2922;fill-opacity:1;fill-rule:evenodd;stroke:none"
         d="m 1950.29,264.328 122.82,0 0,148.371 -122.82,0 0,-148.371 z" /><path
         id="path52"
         style="fill:#ea2922;fill-opacity:1;fill-rule:evenodd;stroke:none"
         d="m 2104.36,264.863 245.641,0 0,148.375 -245.641,0 0,-148.375 z" /></g></g></svg>